<?xml version="1.0" standalone="no"?>
<!DOCTYPE svg PUBLIC "-//W3C//DTD SVG 20010904//EN"
 "http://www.w3.org/TR/2001/REC-SVG-20010904/DTD/svg10.dtd">
<svg version="1.0" xmlns="http://www.w3.org/2000/svg"
 width="6868.000000pt" height="591.000000pt" viewBox="0 0 6868.000000 591.000000"
 preserveAspectRatio="xMidYMid meet">

<g transform="translate(0.000000,591.000000) scale(0.100000,-0.100000)"
fill="#000000" stroke="none">
<path d="M41550 5135 l0 -715 1155 0 1155 0 0 -2150 0 -2150 875 0 875 0 0
2150 0 2150 1155 0 1155 0 0 715 0 715 -3185 0 -3185 0 0 -715z"/>
<path d="M48360 2985 l0 -2865 870 0 870 0 0 2865 0 2865 -870 0 -870 0 0
-2865z"/>
<path d="M51010 2985 l0 -2865 875 0 875 0 0 1075 0 1075 1830 0 1830 0 0 715
0 715 -1830 0 -1830 0 0 360 0 360 1990 0 1990 0 0 715 0 715 -2865 0 -2865 0
0 -2865z"/>
<path d="M57298 5438 c460 -637 678 -940 887 -1228 106 -146 369 -510 585
-810 216 -300 498 -690 627 -867 l233 -322 0 -1045 0 -1046 870 0 870 0 0
1044 0 1043 258 359 c252 350 566 786 1237 1714 643 891 1081 1500 1110 1544
l17 26 -1029 0 -1028 0 -96 -132 c-53 -73 -262 -362 -464 -643 -203 -280 -481
-665 -618 -855 -136 -190 -251 -346 -255 -347 -4 -2 -20 16 -37 40 -28 40
-294 408 -835 1157 -141 195 -325 451 -409 568 l-153 212 -1034 0 -1033 0 297
-412z"/>
<path d="M37205 5809 c-724 -21 -1316 -161 -1748 -413 -550 -321 -883 -821
-1026 -1541 -64 -325 -86 -599 -78 -1005 11 -553 86 -982 237 -1344 370 -888
1127 -1319 2455 -1396 102 -6 984 -10 2198 -10 l2027 0 0 669 0 668 -92 6
c-51 3 -946 6 -1988 7 -1124 0 -1942 5 -2010 11 -229 19 -428 65 -578 134
-449 208 -649 669 -629 1448 13 528 120 853 356 1087 175 174 421 275 768 315
138 16 877 21 3531 24 l642 1 0 670 0 670 -522 2 c-1057 5 -3329 3 -3543 -3z
m4015 -669 l0 -630 -330 0 -330 0 0 623 c0 343 3 627 7 630 3 4 152 7 330 7
l323 0 0 -630z m0 -4370 l0 -630 -327 2 -328 3 -3 628 -2 627 330 0 330 0 0
-630z"/>
<path d="M3373 5740 l-21 -49 52 -56 c59 -64 72 -68 196 -67 51 0 90 7 120 20
38 16 56 18 119 11 85 -9 105 -15 96 -28 -3 -5 -1 -12 5 -16 5 -3 10 -25 10
-47 0 -48 8 -47 14 1 5 42 15 52 62 58 22 3 53 14 71 24 39 24 97 33 124 19
15 -8 24 -6 40 9 12 11 18 24 15 29 -3 6 1 13 10 16 8 3 13 10 10 15 -3 4 4
17 15 27 12 11 25 29 30 42 5 12 16 22 24 22 9 0 13 -4 10 -10 -4 -6 6 -10 22
-10 16 0 34 -5 40 -11 7 -7 14 -2 21 20 l11 31 -537 -1 -537 0 -22 -49z m268
13 c42 -25 37 -47 -17 -72 -51 -25 -75 -21 -98 13 -14 22 -14 26 5 50 24 31
67 34 110 9z m344 -3 c-3 -5 -1 -11 4 -15 12 -7 4 -33 -16 -56 -7 -9 -10 -18
-7 -22 3 -3 -1 -4 -10 -3 -21 3 -41 34 -45 69 -2 21 3 29 20 36 26 9 61 3 54
-9z"/>
<path d="M4600 5764 c-17 -15 -28 -29 -25 -32 8 -8 -26 -29 -61 -36 -44 -10
-61 -45 -45 -94 20 -59 76 -77 148 -47 34 14 38 14 58 -5 20 -19 21 -24 10
-75 -14 -70 -34 -93 -72 -79 -16 5 -28 15 -28 21 0 7 -10 21 -22 32 l-21 20
-15 -38 c-19 -47 -32 -57 -82 -64 -36 -6 -65 -28 -65 -49 0 -14 77 -88 91 -88
8 -1 2 -8 -13 -16 -16 -8 -28 -19 -28 -24 0 -6 -7 -10 -15 -10 -8 0 -15 -4
-15 -10 0 -5 -7 -10 -16 -10 -8 0 -13 -4 -10 -9 7 -11 -19 -22 -36 -16 -7 2
-38 9 -70 15 -31 6 -68 21 -84 35 l-27 23 -56 -36 c-31 -20 -58 -38 -60 -39
-2 -2 1 -14 7 -27 12 -28 102 -63 130 -50 9 4 21 6 25 5 4 0 18 4 30 11 12 7
26 11 31 10 5 -2 27 4 48 13 45 18 52 15 74 -27 8 -16 18 -27 21 -24 7 7 43
-38 43 -54 0 -9 -4 -9 -17 1 -15 13 -15 12 -5 -6 24 -44 61 -79 83 -81 13 -1
42 -5 64 -9 22 -5 49 -9 60 -10 19 -2 31 -18 54 -77 7 -20 18 -28 34 -28 14 0
36 -9 50 -20 23 -18 25 -26 23 -92 l-1 -73 -31 -3 c-38 -4 -44 4 -81 97 -30
74 -30 75 -69 77 -21 1 -52 5 -68 8 -17 3 -35 1 -42 -5 -7 -6 -17 -8 -22 -5
-6 3 -12 -3 -15 -14 -5 -20 -27 -28 -27 -10 0 17 -34 50 -51 50 -27 0 -77 29
-103 60 -26 31 -46 39 -46 17 0 -7 -20 -42 -45 -79 -32 -48 -53 -69 -73 -74
-81 -19 -107 -32 -116 -60 -15 -50 -22 -59 -53 -62 -19 -2 -35 4 -47 17 -17
18 -17 20 1 48 28 44 46 63 60 63 18 0 11 43 -9 58 -10 7 -18 19 -18 27 0 7
-17 17 -37 23 -26 7 -31 10 -15 11 17 1 22 7 22 27 0 16 4 23 11 18 9 -5 10 4
5 32 -4 21 -12 41 -17 42 -5 2 -9 8 -9 12 0 10 -44 60 -53 60 -4 0 -4 -7 0
-15 3 -9 1 -15 -4 -13 -5 2 -22 -12 -38 -30 -27 -32 -27 -33 -9 -54 12 -14 14
-18 4 -13 -13 8 -13 7 -1 -8 7 -9 10 -17 5 -17 -5 0 -2 -6 6 -13 19 -15 22
-57 4 -57 -12 0 -19 -19 -15 -42 0 -5 -4 -8 -10 -8 -5 0 -8 -4 -4 -9 3 -5 -4
-13 -16 -16 -13 -4 -24 -2 -29 5 -4 6 -25 14 -46 17 -66 9 -85 -43 -23 -62 14
-5 19 -16 19 -40 0 -39 16 -86 33 -97 7 -4 30 -8 53 -8 32 0 47 -7 73 -32 25
-25 43 -33 79 -36 54 -4 72 -21 72 -68 0 -18 5 -36 10 -39 6 -4 8 -11 5 -16
-4 -5 2 -9 12 -10 10 0 26 -2 36 -4 9 -2 15 0 12 5 -3 4 2 13 10 20 9 8 15 30
15 60 0 50 -1 51 -72 74 -21 6 -16 45 8 63 18 13 66 -8 95 -42 15 -17 21 -18
36 -7 10 7 26 15 36 18 9 4 17 10 17 15 0 5 11 14 24 20 21 10 30 7 60 -16 20
-15 34 -31 31 -35 -6 -10 34 -25 42 -16 4 3 1 6 -7 6 -10 0 -10 3 0 15 7 8 9
15 4 15 -5 0 -2 5 6 10 24 15 130 13 130 -3 0 -8 18 -20 40 -27 43 -14 80 -60
80 -98 0 -25 -44 -62 -74 -62 -35 0 -55 21 -73 80 -16 50 -21 55 -48 57 -40 2
-76 -7 -70 -18 3 -4 13 -6 23 -3 10 4 13 2 7 -3 -6 -4 -16 -21 -23 -36 -7 -15
-17 -25 -22 -22 -6 3 -10 1 -10 -4 0 -6 5 -11 12 -11 6 0 9 -3 5 -6 -3 -3 -11
-2 -19 2 -7 4 -29 9 -50 10 -32 2 -45 -5 -87 -42 -27 -24 -63 -47 -79 -50 -26
-5 -32 -12 -37 -45 -8 -45 -20 -56 -41 -38 -11 9 -14 22 -10 42 3 16 1 37 -5
48 -8 16 -16 19 -47 13 -37 -7 -62 -24 -62 -43 0 -6 -4 -11 -10 -11 -5 0 -10
-11 -10 -25 0 -27 33 -63 67 -71 13 -4 26 -16 29 -29 6 -24 -12 -103 -28 -122
-15 -18 -38 -16 -38 4 0 9 -2 14 -6 11 -3 -3 -22 2 -42 12 -37 18 -62 17 -62
-4 0 -6 -5 -4 -10 4 -8 13 -10 12 -10 -2 0 -21 -16 -24 -23 -5 -4 10 -6 10 -6
0 -1 -7 -5 -13 -11 -13 -13 0 -13 38 -1 76 9 26 16 107 25 254 1 25 6 51 10
58 4 7 1 18 -6 26 -18 18 -40 -5 -42 -44 0 -16 -4 -26 -9 -23 -5 3 -6 -10 -3
-29 17 -95 23 -154 19 -165 -7 -18 -65 -26 -128 -18 -64 8 -85 -2 -113 -48
-19 -34 -21 -34 -96 -36 -48 -1 -76 2 -76 8 0 6 -6 11 -13 11 -7 0 -18 14 -24
31 -16 41 -42 35 -68 -16 -14 -28 -28 -41 -45 -43 -27 -3 -41 -19 -37 -42 3
-19 41 -21 89 -4 21 7 38 10 38 5 0 -4 9 -18 20 -31 11 -13 20 -33 20 -46 0
-49 51 -54 94 -10 20 21 55 42 87 52 53 18 63 18 124 11 17 -2 37 -5 45 -5 39
-4 47 -114 12 -155 -23 -26 1 -66 42 -69 17 -1 39 -2 50 -2 11 -1 23 -14 30
-36 17 -48 43 -96 50 -92 4 2 23 -2 44 -8 55 -15 57 -14 81 38 12 26 34 55 47
65 24 18 25 18 71 -12 26 -17 52 -31 59 -31 24 0 47 47 42 87 -3 21 1 52 8 68
7 17 19 45 26 63 10 26 17 32 33 28 11 -3 26 -6 34 -6 9 0 10 -4 3 -12 -16
-20 -13 -98 4 -105 7 -3 11 -9 8 -14 -3 -5 -1 -9 4 -9 6 0 12 7 16 15 14 37 3
58 377 -713 83 -172 116 -231 127 -227 11 4 13 0 9 -16 -4 -15 36 -106 130
-298 165 -334 213 -438 205 -445 -3 -4 -79 -6 -169 -6 l-163 0 0 -30 c0 -16
-4 -30 -10 -30 -10 0 -14 21 -11 48 2 9 -42 12 -191 12 -149 0 -189 -3 -180
-12 30 -30 -6 -88 -54 -88 -13 0 -25 -4 -28 -9 -3 -5 -16 -7 -27 -4 -19 5 -21
3 -14 -28 4 -19 11 -35 15 -37 42 -16 55 -61 23 -77 -31 -16 -171 12 -172 35
-1 8 -2 34 -2 58 0 53 -28 75 -99 76 -26 1 -46 3 -44 5 2 2 -6 21 -17 42 -19
39 -20 39 -78 39 -56 0 -58 -1 -58 -28 0 -15 -11 -44 -24 -64 -25 -39 -35 -41
-86 -16 -26 13 -53 -3 -53 -31 0 -9 -8 -28 -17 -41 -10 -14 -17 -27 -16 -30 2
-3 -9 -8 -22 -12 -14 -3 -25 -2 -25 2 0 21 -89 61 -143 64 -74 4 -87 16 -87
82 0 30 -4 54 -10 54 -5 0 -10 8 -10 18 0 13 -2 14 -9 3 -7 -10 -9 -11 -13 -1
-2 8 -13 15 -24 17 -10 2 -32 6 -49 9 -66 13 -142 7 -162 -13 -43 -44 -44 -47
-24 -99 14 -38 17 -63 11 -108 -5 -47 -3 -62 11 -79 16 -20 17 -20 34 -4 11
11 15 27 12 42 -2 14 -1 25 3 25 4 0 7 15 5 33 -2 43 9 63 41 71 33 9 71 -15
80 -49 3 -14 10 -25 15 -25 5 0 9 -7 9 -16 0 -9 7 -22 16 -29 9 -6 17 -25 18
-41 1 -16 5 -35 9 -42 5 -6 5 -17 1 -24 -5 -8 -2 -9 9 -5 11 4 17 1 17 -9 0
-11 9 -14 33 -12 18 2 31 8 30 15 -4 20 44 50 92 57 24 4 47 11 50 17 4 5 10
7 15 4 4 -3 11 3 14 12 4 10 10 13 14 8 4 -6 16 -15 27 -21 15 -8 23 -28 30
-73 7 -42 16 -66 28 -72 9 -6 17 -19 17 -29 0 -10 9 -34 20 -53 21 -35 21 -35
1 -86 -29 -77 -15 -114 47 -127 20 -4 40 -8 45 -9 4 -2 12 -3 18 -4 6 0 3 -8
-5 -17 -9 -8 -14 -19 -11 -24 3 -4 -2 -11 -11 -14 -8 -3 -13 -10 -10 -15 3 -5
-1 -12 -10 -15 -10 -4 -13 -13 -9 -26 3 -10 0 -30 -6 -42 -7 -13 -14 -29 -15
-36 -3 -19 -9 -23 -35 -24 -13 -1 -41 -19 -63 -40 -37 -37 -38 -41 -34 -90 3
-27 12 -54 19 -59 11 -7 10 -9 -3 -9 -10 0 -18 7 -18 15 0 8 -6 15 -12 16 -7
0 -35 4 -62 8 -49 8 -110 -1 -121 -19 -3 -5 -8 -38 -11 -74 -5 -65 -5 -66 21
-66 14 0 25 -5 25 -11 0 -7 9 -9 21 -6 14 4 31 -5 57 -29 20 -19 48 -37 62
-40 14 -3 29 -7 35 -8 5 -2 8 -19 7 -39 l-4 -37 209 0 c114 0 225 5 245 10 34
10 37 14 44 58 7 46 7 47 -43 92 -33 30 -54 59 -62 85 -28 91 -46 105 -76 58
-25 -39 -66 -72 -91 -73 -26 0 -74 40 -74 62 0 8 7 21 15 28 8 6 14 15 13 18
-1 4 5 21 15 38 9 17 13 34 10 38 -4 4 -9 19 -11 33 -2 15 -9 31 -15 37 -7 6
-10 10 -8 9 2 -2 9 4 15 12 6 9 23 18 38 20 22 4 28 0 36 -24 9 -26 52 -80 52
-66 0 4 8 2 17 -4 12 -6 28 -4 56 10 40 21 62 59 52 90 -4 11 -2 19 4 19 10 0
16 -17 25 -72 5 -32 34 -78 50 -78 8 0 8 -2 0 -8 -17 -11 -30 -44 -29 -77 0
-27 7 -33 73 -66 39 -19 74 -38 77 -41 3 -3 10 -31 15 -62 6 -37 20 -72 41
-101 l32 -45 139 0 c103 0 138 3 139 13 1 6 2 34 3 61 1 46 4 50 30 57 34 9
48 27 40 51 -3 12 6 28 28 48 35 32 43 36 53 20 4 -6 10 -8 15 -5 5 3 11 1 15
-5 3 -5 15 -10 26 -10 10 0 19 -7 19 -15 0 -9 6 -12 15 -9 8 4 15 1 15 -5 0
-6 -5 -11 -11 -11 -10 0 -48 -27 -91 -64 -9 -8 -26 -17 -39 -21 -34 -11 -45
-26 -47 -67 l-3 -38 561 0 560 0 158 -319 157 -320 953 0 952 -1 -69 138 c-37
75 -112 227 -166 337 -54 110 -227 463 -385 785 -726 1476 -873 1776 -1020
2080 -87 179 -236 483 -331 675 -96 193 -248 502 -338 688 -90 185 -168 337
-173 337 -18 0 -37 27 -27 37 7 7 -10 51 -51 134 -61 122 -93 169 -115 169 -6
0 -25 19 -43 41 l-31 42 19 27 19 26 -52 107 -52 106 -105 0 c-110 0 -136 -9
-153 -52 -8 -22 -29 -13 -26 11 4 43 6 42 -195 42 l-194 0 -32 -26z m664 -37
c11 -10 9 -15 -10 -24 -26 -12 -40 -2 -30 22 7 18 23 19 40 2z m-504 -107 c0
-5 -4 -10 -10 -10 -5 0 -10 5 -10 10 0 6 5 10 10 10 6 0 10 -4 10 -10z m427
-57 c18 -1 49 -11 69 -21 l36 -19 -44 -26 c-62 -36 -74 -62 -54 -121 9 -25 15
-50 15 -54 -3 -19 2 -40 14 -56 12 -16 17 -17 37 -6 31 17 70 56 63 64 -4 3
-2 6 3 6 6 0 15 -15 22 -33 7 -19 20 -42 30 -52 17 -18 16 -20 -5 -41 -12 -12
-25 -38 -28 -57 -4 -20 -13 -38 -21 -41 -8 -3 -13 -2 -13 2 3 20 -3 33 -26 57
-14 14 -30 25 -36 25 -6 0 -7 5 -4 10 4 7 -2 9 -17 6 -80 -19 -88 -17 -107 30
-7 18 -26 44 -42 60 -16 15 -29 36 -29 46 0 10 -4 18 -10 18 -5 0 -10 -6 -10
-14 0 -7 -11 -24 -24 -37 -12 -13 -29 -34 -35 -47 -15 -29 -12 -90 7 -119 8
-13 10 -23 6 -23 -5 0 -9 -11 -9 -24 0 -13 4 -22 9 -19 4 3 5 -4 2 -15 -6 -17
-2 -23 19 -28 15 -4 31 -1 40 6 8 7 15 9 15 4 1 -5 8 0 18 12 13 16 31 21 77
23 33 1 73 4 90 6 36 5 55 -10 55 -42 0 -29 -53 -83 -81 -83 -10 0 -19 -4 -19
-10 0 -5 -11 -10 -25 -10 -24 0 -25 -3 -25 -52 0 -29 4 -58 8 -64 11 -17 63
-41 105 -49 21 -4 42 -16 47 -26 15 -27 -20 -46 -105 -59 -66 -9 -71 -9 -88
12 -15 18 -18 34 -14 88 2 36 11 84 18 108 l13 43 -44 42 c-32 29 -52 40 -69
38 -13 -1 -35 3 -48 10 -32 17 -54 -2 -35 -31 10 -17 10 -20 -5 -20 -80 -2
-146 -10 -159 -20 -11 -10 -20 -10 -39 -2 -14 7 -36 17 -49 23 -13 6 -29 8
-35 5 -6 -4 -11 -3 -11 2 0 5 -11 10 -24 10 -13 0 -33 6 -45 14 -20 14 -20 15
13 44 18 17 38 28 45 26 6 -2 11 0 11 6 0 5 7 9 15 9 8 0 15 -3 15 -7 0 -8 6
-9 90 -13 52 -3 68 0 84 15 11 10 26 18 33 18 22 0 14 20 -11 30 -13 5 -44 24
-69 42 -24 18 -52 38 -62 43 -17 11 -17 12 0 38 10 16 13 27 6 27 -19 0 -12
25 14 50 15 14 28 43 36 78 6 30 20 70 30 89 10 18 20 36 21 41 2 4 8 5 13 3
6 -2 40 -7 76 -11 36 -4 75 -12 86 -18 17 -10 23 -8 35 10 15 22 76 48 93 39
5 -3 24 -6 42 -8z m-640 -245 c-3 -7 -5 -2 -5 12 0 14 2 19 5 13 2 -7 2 -19 0
-25z m1111 -366 l23 -18 -25 -21 c-23 -20 -25 -21 -40 -4 -25 28 -19 56 14 60
3 0 15 -7 28 -17z m-701 -93 c-3 -11 -1 -19 4 -19 5 0 4 -9 -3 -20 -20 -31
-28 -24 -28 25 0 36 3 43 16 38 9 -3 14 -13 11 -24z m696 -102 c24 -15 25 -20
15 -45 -7 -15 -19 -33 -27 -39 -8 -7 -11 -13 -6 -13 4 0 6 -3 2 -6 -6 -7 -77
44 -75 54 1 4 -2 15 -7 25 -17 41 48 57 98 24z m-1086 -69 c11 -13 23 -31 26
-41 12 -33 -29 -86 -65 -87 -15 0 -18 9 -18 50 0 47 16 100 30 100 4 0 16 -10
27 -22z m401 -28 c18 -23 20 -33 12 -54 -7 -20 -16 -26 -40 -26 -26 0 -30 3
-30 29 0 16 6 34 14 41 8 6 12 18 9 26 -9 23 11 15 35 -16z m-81 -97 c-16 -4
-14 -8 14 -29 18 -13 41 -24 51 -24 10 0 18 -8 19 -17 0 -10 2 -27 4 -37 2
-10 -3 -37 -12 -58 l-16 -39 -61 6 c-88 8 -137 23 -134 40 2 8 -6 21 -17 29
-18 14 -18 15 -2 16 9 0 17 5 17 12 0 6 3 8 7 5 12 -12 43 25 53 65 10 37 12
38 53 37 23 -1 34 -3 24 -6z m173 -18 c11 -13 8 -15 -19 -15 -31 0 -42 14 -18
23 20 9 24 8 37 -8z m689 -99 c17 -20 -9 -36 -68 -41 -43 -4 -52 -1 -65 17
-12 17 -13 24 -3 30 21 13 124 9 136 -6z m191 -106 c0 -5 -4 -10 -9 -10 -6 0
-13 5 -16 10 -3 6 1 10 9 10 9 0 16 -4 16 -10z m-1578 -82 c2 -6 2 -25 0 -42
-4 -27 -6 -28 -13 -11 -11 28 -11 65 0 65 5 0 11 -5 13 -12z m1391 -115 c-7
-2 -21 -2 -30 0 -10 3 -4 5 12 5 17 0 24 -2 18 -5z m-608 -134 c-6 -58 -15
-61 -15 -6 0 26 4 47 10 47 5 0 7 -18 5 -41z m990 31 c-3 -5 -10 -10 -16 -10
-5 0 -9 5 -9 10 0 6 7 10 16 10 8 0 12 -4 9 -10z m-1544 -59 c14 -12 19 -28
16 -47 -3 -24 -9 -30 -36 -32 -31 -3 -81 19 -81 37 0 18 43 61 61 61 11 0 29
-8 40 -19z m169 -56 c-7 -14 -17 -25 -22 -25 -5 0 -6 5 -3 10 3 6 -1 10 -9 10
-25 0 -28 18 -5 41 19 19 23 20 37 5 14 -13 14 -19 2 -41z m190 9 c0 -13 -4
-24 -10 -24 -5 0 -10 14 -10 31 0 17 4 28 10 24 6 -3 10 -17 10 -31z m-1058
-44 c7 -16 16 -30 20 -30 11 0 -3 -31 -23 -51 -9 -9 -20 -15 -23 -11 -3 3 -6
-1 -6 -8 0 -9 -9 -5 -24 9 -20 18 -23 28 -16 50 8 29 39 71 51 71 4 0 13 -13
21 -30z m788 -42 c0 -9 -22 -10 -44 -2 -12 4 -12 9 -3 19 9 9 16 9 29 1 10 -6
18 -14 18 -18z m257 -90 c-3 -8 -6 -5 -6 6 -1 11 2 17 5 13 3 -3 4 -12 1 -19z
m-57 -83 c10 -12 8 -21 -11 -50 l-24 -34 -18 29 c-23 37 -15 70 17 70 13 0 29
-7 36 -15z m-210 -21 c0 -22 -28 -28 -58 -14 l-27 13 30 12 c33 14 55 10 55
-11z m898 4 c2 -9 -6 -22 -18 -28 -17 -9 -27 -8 -47 6 -26 16 -26 17 -7 31 25
18 68 13 72 -9z m182 2 c8 -5 11 -10 7 -10 -5 0 -1 -7 7 -16 9 -8 16 -23 17
-32 0 -9 2 -25 4 -35 2 -12 -8 -25 -28 -37 -29 -18 -32 -18 -50 -2 -20 18 -19
62 2 115 11 29 18 32 41 17z m-405 -100 c3 -5 -1 -10 -10 -10 -9 0 -13 5 -10
10 3 6 8 10 10 10 2 0 7 -4 10 -10z m-390 -105 c0 -10 -5 -20 -11 -22 -13 -4
-27 24 -18 38 9 15 29 4 29 -16z m295 -1 c0 -20 -30 -30 -40 -14 -6 9 -2 18 8
26 19 14 32 9 32 -12z m-494 -11 c-4 -9 -2 -21 2 -27 17 -21 20 -67 5 -73 -8
-3 -12 -12 -9 -19 3 -7 1 -16 -4 -19 -5 -3 -11 18 -14 47 -9 89 -4 124 15 113
6 -4 8 -14 5 -22z m1587 -41 c23 -47 8 -152 -23 -152 -9 0 -31 105 -26 123 3
6 7 25 10 40 7 32 19 29 39 -11z m-1200 -37 c4 -8 2 -17 -3 -20 -6 -4 -10 3
-10 14 0 25 6 27 13 6z m811 5 l25 -9 -27 -28 -27 -28 -11 25 c-7 17 -8 29 -1
38 11 14 10 14 41 2z m-874 -85 c9 -16 9 -28 1 -42 -5 -11 -8 -22 -6 -25 3 -2
-18 -24 -45 -48 -58 -51 -96 -59 -135 -29 l-26 22 48 34 c26 18 52 41 57 50 5
9 20 29 33 44 28 31 54 29 73 -6z m650 -125 c0 -6 -11 -8 -27 -4 -40 10 -41
14 -5 14 18 0 32 -5 32 -10z m-443 -104 c-1 -14 -15 -34 -29 -46 l-26 -20 -12
35 c-15 44 -7 55 36 55 31 0 34 -3 31 -24z m1047 -65 c16 -17 16 -20 0 -36
-21 -20 -33 -6 -26 31 5 29 5 29 26 5z m-1181 -115 c7 -17 -10 -25 -36 -18
-17 4 -17 5 0 18 23 17 30 17 36 0z m99 -141 c3 -22 8 -47 12 -56 5 -12 1 -18
-14 -22 -26 -7 -55 20 -41 37 6 7 8 21 5 33 -7 24 14 69 26 57 4 -5 10 -27 12
-49z m1308 -66 c0 -10 -10 -23 -21 -30 -18 -9 -25 -7 -42 9 -19 20 -19 22 -3
46 16 25 18 25 41 10 14 -9 25 -25 25 -35z m-313 19 l23 -22 -22 -23 c-27 -29
-33 -29 -68 1 -30 25 -28 35 10 53 33 16 31 16 57 -9z m-1091 -69 c4 -7 13
-42 20 -80 12 -62 11 -70 -7 -105 -10 -21 -19 -55 -19 -76 0 -21 -4 -38 -10
-38 -5 0 -10 12 -10 26 0 14 -4 22 -10 19 -6 -3 -9 26 -9 77 1 46 -3 94 -8
108 -8 19 -6 30 10 52 23 30 32 34 43 17z m1764 -243 c0 -11 -19 -15 -25 -6
-3 5 1 10 9 10 9 0 16 -2 16 -4z m-1580 -68 c0 -48 -3 -59 -12 -50 -7 7 -35
12 -62 13 l-51 1 47 14 c39 13 49 20 58 49 6 19 13 35 16 35 2 0 4 -28 4 -62z
m1190 -29 c0 -5 -4 -9 -10 -9 -5 0 -10 7 -10 16 0 8 5 12 10 9 6 -3 10 -10 10
-16z m290 -9 c0 -5 -4 -10 -10 -10 -5 0 -10 5 -10 10 0 6 5 10 10 10 6 0 10
-4 10 -10z m-1567 -290 c7 -14 14 -27 17 -30 3 -3 15 -19 28 -37 l22 -32 -25
-17 c-28 -18 -113 -21 -144 -5 -18 10 -41 71 -41 109 0 24 14 35 50 40 14 2
36 9 50 15 21 11 25 10 28 -3 2 -8 8 -26 15 -40z m1377 8 c0 -20 -17 -23 -40
-8 -12 7 -11 12 5 30 20 22 35 13 35 -22z m-341 -4 c2 -2 -5 -6 -15 -9 -10 -4
-26 -10 -34 -15 -21 -10 -54 12 -39 27 9 9 78 7 88 -3z m826 -4 c-3 -5 -13 -6
-21 -3 -12 4 -13 8 -3 14 15 9 32 2 24 -11z m-2155 0 c0 -5 -11 -10 -25 -10
-14 0 -25 5 -25 10 0 6 11 10 25 10 14 0 25 -4 25 -10z m-851 -86 c10 -11 21
-33 25 -48 4 -17 11 -24 19 -20 7 4 9 4 5 -1 -4 -4 -1 -22 7 -40 7 -19 11 -35
9 -38 -6 -6 60 -37 78 -37 20 0 38 -21 38 -45 0 -23 22 -39 67 -49 33 -8 50
-40 33 -61 -6 -7 -6 -16 -2 -20 4 -5 1 -4 -7 0 -11 6 -13 4 -7 -10 5 -15 4
-16 -9 -5 -13 11 -14 10 -9 -5 5 -13 3 -16 -7 -13 -8 3 -13 13 -13 22 2 16 0
16 -19 -1 -11 -10 -18 -13 -14 -7 8 13 -26 47 -37 37 -4 -4 -4 1 0 11 5 14 4
17 -4 12 -8 -5 -12 0 -12 12 0 21 -59 72 -84 72 -29 0 -66 23 -66 41 0 10 -9
21 -21 24 -27 9 -71 -31 -67 -59 2 -16 -4 -22 -27 -26 -28 -5 -32 -2 -52 42
-12 26 -31 59 -42 75 -23 31 -37 130 -23 152 6 9 40 16 93 21 49 4 85 12 87
19 2 7 12 3 24 -11 10 -13 27 -32 37 -44z m464 44 c25 -19 32 -71 12 -91 -19
-20 -44 -21 -79 -6 -32 15 -39 35 -24 70 17 38 59 50 91 27z m274 -52 c-4 -9
-14 -12 -26 -9 -12 3 -18 9 -15 14 3 5 9 7 14 4 5 -3 12 0 15 6 10 14 19 3 12
-15z m-183 -127 c15 -75 5 -116 -31 -130 -20 -7 -24 -15 -21 -41 3 -29 7 -33
41 -39 20 -3 39 -8 42 -11 8 -7 -6 -68 -14 -63 -4 2 -13 0 -21 -5 -18 -11 -58
16 -62 43 -2 16 -11 23 -30 25 -16 2 -28 7 -28 11 0 5 -9 11 -20 14 -11 3 -23
13 -27 24 -9 24 -23 33 -52 33 -16 0 -21 4 -17 15 3 9 0 15 -9 15 -18 0 -11
61 10 76 8 6 12 13 9 16 -3 4 -1 9 4 12 15 9 51 -37 60 -79 7 -34 12 -40 42
-47 36 -7 59 5 64 33 1 8 9 34 16 59 12 41 15 50 19 65 4 17 19 0 25 -26z
m581 -106 c-8 -63 -17 -54 -17 17 0 29 1 32 12 25 5 -3 8 -22 5 -42z m792 31
c-3 -3 -12 -4 -19 -1 -8 3 -5 6 6 6 11 1 17 -2 13 -5z m1176 -78 c3 -8 3 -24
0 -35 -5 -20 -7 -21 -24 -5 -15 13 -16 20 -6 35 14 23 23 24 30 5z m-2455 -8
c16 -16 15 -45 0 -50 -34 -13 -93 33 -71 55 11 11 58 8 71 -5z m-783 -134
c-13 -20 -19 -23 -31 -13 -17 14 -18 30 -3 63 l12 25 19 -25 c19 -23 19 -26 3
-50z m875 65 c0 -6 9 -9 20 -6 11 3 27 -1 34 -9 8 -8 19 -14 25 -14 6 0 11 -3
11 -8 0 -8 -31 -30 -41 -28 -4 1 -17 -8 -28 -18 -22 -20 -22 -20 -52 14 l-31
33 24 23 c26 25 38 30 38 13z m1025 -39 c-3 -5 -17 -10 -31 -10 -13 0 -24 5
-24 10 0 6 14 10 31 10 17 0 28 -4 24 -10z m256 -3 c-1 -12 -15 -9 -19 4 -3 6
1 10 8 8 6 -3 11 -8 11 -12z m-1937 -67 c18 -7 26 -17 26 -34 0 -14 5 -28 10
-31 6 -4 8 -11 5 -16 -4 -5 3 -9 13 -9 24 0 35 -35 17 -50 -15 -13 -59 -4 -75
15 -6 8 -24 17 -40 20 -24 5 -64 35 -47 35 4 0 3 10 -2 23 -7 18 -3 25 18 39
30 21 40 22 75 8z m976 -45 c0 -11 7 -31 16 -43 12 -17 12 -22 2 -23 -7 -1 3
-5 22 -9 35 -8 34 -8 -10 -8 -25 0 -70 -5 -101 -12 -49 -12 -58 -12 -80 3 -13
9 -18 17 -11 17 6 0 12 6 12 13 0 12 55 41 72 38 4 0 5 5 2 13 -3 8 4 23 17
34 17 17 25 19 40 9 11 -7 19 -21 19 -32z m510 21 c0 -2 -11 -6 -25 -8 -14 -3
-25 -1 -25 3 0 5 11 9 25 9 14 0 25 -2 25 -4z m-1207 -92 c13 -5 13 -9 -1 -35
-17 -29 -32 -38 -32 -18 0 6 -7 8 -16 5 -13 -5 -14 -4 -6 7 7 8 9 17 6 20 -9
9 5 27 21 27 7 0 20 -3 28 -6z m-101 -112 c-7 -2 -10 -8 -7 -12 3 -5 0 -12 -6
-16 -7 -4 -9 -3 -5 4 3 5 0 13 -6 15 -10 4 -10 8 2 16 8 5 19 7 24 4 6 -4 5
-8 -2 -11z m1768 -89 c0 -7 -3 -13 -7 -14 -5 -1 -25 -3 -46 -4 -21 -2 -45 -6
-52 -9 -16 -6 -39 19 -30 34 3 5 24 10 45 10 22 0 45 6 52 14 11 11 15 11 25
-3 7 -9 13 -22 13 -28z m-685 -33 l-19 -21 -20 20 c-19 20 -19 21 -1 41 l19
21 20 -20 c19 -20 19 -21 1 -41z m-689 29 c3 -6 0 -15 -7 -20 -14 -8 -32 9
-23 23 7 11 22 10 30 -3z m1563 -88 c13 -24 -4 -32 -38 -19 -23 8 -24 9 -5 23
25 19 31 19 43 -4z m-1873 -18 c-10 -10 -19 5 -10 18 6 11 8 11 12 0 2 -7 1
-15 -2 -18z m-616 7 c8 -5 12 -11 9 -14 -7 -8 -49 5 -49 15 0 12 21 11 40 -1z
m846 -71 c21 -42 18 -79 -6 -79 -11 0 -20 -4 -20 -10 0 -20 -20 -9 -35 19 -13
26 -13 34 2 75 19 50 31 48 59 -5z m454 -29 c0 -5 -4 -10 -10 -10 -5 0 -10 5
-10 10 0 6 5 10 10 10 6 0 10 -4 10 -10z m604 -35 c37 -56 10 -97 -56 -85 -50
10 -69 27 -48 43 8 7 20 21 26 32 7 11 19 19 28 17 9 -2 16 2 16 8 0 18 17 11
34 -15z m-1969 -45 c4 -6 1 -17 -5 -25 -9 -11 -17 -11 -36 -3 l-25 12 23 13
c28 15 35 16 43 3z m1469 -6 c20 -8 20 -50 1 -84 -13 -24 -14 -24 -21 -5 -4
11 -13 34 -20 52 -11 28 -10 32 4 36 9 3 18 5 19 6 1 0 8 -2 17 -5z m986 -124
c0 -11 -4 -20 -10 -20 -5 0 -10 2 -10 4 0 2 -3 11 -6 20 -4 11 -1 16 10 16 9
0 16 -8 16 -20z m690 -380 c0 -5 -4 -10 -10 -10 -5 0 -10 5 -10 10 0 6 5 10
10 10 6 0 10 -4 10 -10z"/>
<path d="M7210 5080 l0 -710 1155 0 1155 0 0 -2155 0 -2155 875 0 875 0 -1
2143 c0 1178 0 2148 1 2155 0 9 238 12 1155 12 l1155 0 0 710 0 710 -3185 0
-3185 0 0 -710z m200 50 c0 -5 -4 -10 -10 -10 -5 0 -10 5 -10 10 0 6 5 10 10
10 6 0 10 -4 10 -10z m287 -622 c-3 -7 -5 -2 -5 12 0 14 2 19 5 13 2 -7 2 -19
0 -25z"/>
<path d="M13840 5080 l0 -710 708 0 c389 0 907 -1 1152 -3 l445 -2 3 -2152 2
-2153 870 0 870 0 0 2150 0 2150 33 1 c17 0 537 1 1154 2 l1123 2 3 713 2 712
-3182 0 -3183 0 0 -710z"/>
<path d="M20650 2925 l0 -2865 875 0 875 0 0 720 0 720 1054 0 1054 0 156
-292 c85 -161 255 -484 378 -718 l224 -425 986 -3 987 -2 -51 97 c-28 54 -174
330 -323 613 -514 972 -585 1108 -585 1117 0 5 37 38 82 74 427 334 717 840
793 1384 72 514 -43 1038 -323 1465 -326 498 -817 829 -1409 947 l-138 28
-2317 3 -2318 2 0 -2865z m4285 1402 c114 -40 211 -104 297 -196 82 -87 134
-176 169 -291 34 -108 34 -284 1 -390 -80 -255 -267 -436 -518 -500 -75 -19
-116 -20 -1281 -20 l-1203 0 0 715 0 715 1228 -2 1227 -3 80 -28z"/>
<path d="M30296 5718 c-18 -40 -162 -334 -318 -653 -157 -319 -393 -800 -526
-1070 -132 -269 -414 -845 -627 -1280 -213 -434 -500 -1019 -637 -1300 -138
-280 -342 -697 -454 -925 -112 -229 -204 -419 -204 -423 0 -4 430 -7 955 -7
l954 0 157 320 157 320 1545 -2 1544 -3 154 -315 154 -315 955 -3 c525 -1 955
-1 955 1 0 2 -87 181 -194 398 -210 429 -563 1148 -979 1994 -282 575 -633
1291 -1065 2170 -145 297 -334 681 -418 853 l-153 312 -961 0 -961 0 -33 -72z
m1192 -2280 c105 -216 290 -596 411 -845 122 -249 221 -455 221 -458 0 -3
-376 -5 -835 -5 -459 0 -835 2 -835 4 0 8 147 310 415 851 158 319 316 640
351 713 35 72 68 132 72 132 5 0 95 -177 200 -392z"/>
<path d="M4146 5433 c-3 -3 -6 -15 -6 -25 0 -10 -11 -29 -23 -42 -18 -18 -33
-23 -63 -21 -21 2 -45 4 -52 4 -7 1 -21 15 -31 32 l-19 30 -6 -33 c-9 -44 -9
-64 2 -118 9 -40 17 -32 14 12 -1 10 2 17 6 16 4 -1 20 4 36 11 30 12 123 10
144 -3 7 -4 17 -4 22 -1 11 7 21 9 104 20 59 8 50 22 -19 32 -55 7 -71 18 -81
57 -7 28 -17 39 -28 29z"/>
<path d="M3734 5355 c-9 -14 -14 -31 -11 -40 10 -24 52 -29 82 -9 l28 18 -34
28 c-41 34 -44 34 -65 3z"/>
<path d="M3252 5328 c2 -6 10 -14 16 -16 7 -2 10 2 6 12 -7 18 -28 22 -22 4z"/>
<path d="M3065 5040 c-3 -5 -1 -18 4 -27 6 -10 11 -13 11 -6 0 6 8 13 18 15
15 3 14 5 -5 16 -14 8 -24 9 -28 2z"/>
<path d="M3450 5028 c0 -7 5 -20 10 -28 8 -13 14 -13 45 4 47 26 44 36 -10 36
-29 0 -45 -4 -45 -12z"/>
<path d="M4030 4955 c-7 -8 -18 -15 -26 -15 -7 0 -16 -5 -20 -12 -5 -8 -2 -9
9 -5 11 4 17 1 17 -9 0 -25 30 -28 55 -4 20 19 22 25 12 41 -14 23 -30 24 -47
4z"/>
<path d="M3439 4862 c-2 -7 -20 -14 -39 -16 -19 -1 -33 -7 -30 -12 3 -5 8 -8
12 -7 10 4 28 -56 28 -92 0 -41 27 -65 74 -65 46 0 62 31 46 92 -11 41 -69
113 -71 87 0 -8 -4 -5 -8 6 -5 13 -9 15 -12 7z"/>
<path d="M3067 4853 c-15 -15 -6 -33 17 -33 43 0 59 -27 52 -84 -3 -28 -14
-63 -25 -77 -19 -25 -19 -28 -3 -41 39 -32 73 -48 107 -48 24 0 35 -4 35 -15
0 -8 4 -15 10 -15 5 0 7 -6 4 -13 -3 -8 2 -20 11 -27 8 -7 15 -16 15 -21 0
-16 51 -87 66 -93 15 -6 54 59 54 89 0 8 3 15 8 15 4 0 12 11 19 25 10 24 8
28 -35 61 -40 31 -53 35 -86 31 -21 -3 -43 -11 -47 -19 -6 -9 -9 -4 -9 15 0
15 -11 45 -25 67 -14 22 -25 51 -25 64 0 14 -4 27 -9 31 -6 3 -8 14 -6 25 2
11 0 20 -5 20 -5 0 -7 6 -4 14 3 8 -3 19 -15 26 -15 7 -21 7 -21 0 0 -7 -6 -8
-19 0 -22 11 -54 13 -64 3z"/>
<path d="M2826 4619 c-20 -39 -43 -86 -50 -103 l-13 -32 33 1 c18 1 31 -2 28
-7 -9 -15 13 -8 34 10 11 10 23 29 25 43 2 13 14 44 25 69 21 44 21 45 2 61
-10 9 -16 19 -13 23 4 3 -3 6 -14 6 -14 0 -29 -19 -57 -71z"/>
<path d="M3560 4629 c0 -5 5 -7 10 -4 6 3 10 8 10 11 0 2 -4 4 -10 4 -5 0 -10
-5 -10 -11z"/>
<path d="M3033 4469 c-29 -35 -29 -43 2 -57 36 -16 49 -15 69 6 14 16 14 23 4
48 -17 37 -46 39 -75 3z"/>
<path d="M2870 4470 c0 -5 5 -10 11 -10 5 0 7 5 4 10 -3 6 -8 10 -11 10 -2 0
-4 -4 -4 -10z"/>
<path d="M3354 4256 c-4 -10 -2 -22 4 -28 8 -8 13 -7 18 6 4 10 2 22 -4 28 -8
8 -13 7 -18 -6z"/>
<path d="M2636 4233 c-6 -14 -5 -15 5 -6 7 7 10 15 7 18 -3 3 -9 -2 -12 -12z"/>
<path d="M2766 4073 c-34 -123 -27 -164 31 -184 30 -9 33 -14 33 -49 0 -45 9
-53 59 -52 57 2 74 7 82 28 4 10 8 13 8 7 1 -7 6 -13 12 -13 5 0 7 6 4 13 -4
6 0 4 8 -5 9 -12 17 -14 24 -7 8 8 13 8 17 0 4 -7 15 -7 30 -1 13 5 27 6 30 3
3 -4 6 10 6 30 0 21 -5 37 -11 37 -6 0 -9 7 -5 15 3 8 1 15 -4 15 -6 0 -10 7
-10 15 0 8 -7 15 -15 15 -20 0 -75 -49 -75 -67 0 -17 -15 -17 -30 2 -7 8 -16
12 -21 9 -5 -3 -6 3 -2 13 6 16 5 16 -10 4 -11 -8 -17 -9 -17 -2 0 6 -11 8
-30 5 -20 -4 -30 -2 -30 5 0 7 -4 9 -10 6 -11 -7 -12 5 -10 81 1 47 -2 54 -29
73 -27 20 -30 20 -35 4z"/>
<path d="M3530 3884 c-19 -7 -42 -16 -52 -19 -9 -4 -19 -22 -22 -41 -6 -31
-10 -34 -56 -40 -58 -8 -73 -22 -64 -59 6 -26 9 -27 53 -20 25 3 54 8 63 11
19 6 37 -21 40 -60 1 -13 6 -22 10 -20 4 3 8 0 8 -5 0 -6 3 -10 8 -10 54 9 72
-7 86 -73 4 -15 17 -35 31 -44 23 -15 27 -15 50 0 14 9 27 27 31 41 9 37 -26
174 -48 186 -15 8 -18 20 -17 58 3 57 -2 66 -49 90 -33 17 -41 17 -72 5z"/>
<path d="M2570 3860 c-24 -15 1 -31 35 -21 29 7 30 8 8 19 -26 14 -24 14 -43
2z"/>
<path d="M2657 3809 c-12 -7 -17 -23 -17 -54 0 -24 -4 -55 -9 -68 -8 -20 -6
-29 9 -42 29 -26 68 -12 86 31 11 26 26 40 59 54 32 14 45 25 45 40 0 11 -4
20 -10 20 -5 0 -10 -5 -10 -10 0 -6 -13 -4 -30 5 -16 8 -42 16 -58 18 -15 2
-32 6 -38 9 -5 4 -17 2 -27 -3z"/>
<path d="M2458 3769 c-24 -14 -23 -25 4 -32 29 -8 52 11 37 29 -13 16 -18 17
-41 3z"/>
<path d="M3162 3767 c-9 -10 -9 -22 -1 -45 13 -39 36 -32 33 9 -3 39 -17 55
-32 36z"/>
<path d="M3204 3668 c-4 -6 -3 -8 3 -5 6 4 9 -10 8 -36 -2 -48 9 -77 30 -77 8
0 20 -9 28 -20 7 -10 30 -32 49 -48 l36 -28 -47 -29 c-50 -32 -77 -55 -64 -55
4 0 2 -4 -6 -9 -12 -8 -12 -12 2 -26 10 -9 17 -21 17 -26 0 -6 4 -8 9 -5 4 3
11 -18 15 -47 9 -81 7 -104 -10 -111 -22 -9 -54 11 -54 34 0 11 -4 20 -9 20
-5 0 -7 9 -4 20 5 20 -12 50 -28 50 -5 0 -16 -18 -25 -40 -9 -22 -22 -40 -30
-40 -8 0 -14 -5 -14 -11 0 -5 -4 -8 -9 -4 -6 3 -15 -4 -21 -16 -10 -17 -9 -20
2 -14 8 4 7 1 -2 -7 -8 -7 -21 -26 -28 -42 -11 -24 -11 -31 0 -38 22 -14 43
-4 42 20 0 12 5 22 13 22 7 0 13 5 13 10 0 6 8 10 18 10 15 0 15 2 2 11 -11 7
-4 8 25 3 53 -9 51 -7 50 -51 -1 -42 -12 -66 -26 -58 -5 4 -9 1 -9 -4 0 -6 -7
-11 -15 -11 -17 0 -35 -38 -35 -74 0 -31 -43 -70 -70 -63 -11 3 -18 1 -14 -4
3 -5 -2 -9 -10 -9 -23 0 -47 43 -44 82 3 49 -8 61 -38 42 -25 -17 -32 -50 -12
-56 7 -3 13 -30 14 -66 2 -35 -1 -60 -5 -58 -5 3 -6 -5 -4 -18 5 -24 -39 -106
-56 -106 -6 0 -13 -9 -16 -20 -10 -32 -55 -80 -75 -80 -26 0 -30 -23 -6 -35
73 -37 86 -39 111 -15 14 13 25 29 25 36 0 16 40 55 50 49 4 -3 30 -5 56 -6
62 -2 84 -14 84 -44 0 -24 -40 -77 -56 -74 -24 4 -34 -3 -34 -26 0 -14 -6 -25
-13 -25 -8 0 -19 -11 -25 -25 -10 -22 -18 -25 -67 -25 -32 0 -55 -4 -55 -11 0
-6 22 -10 53 -9 91 2 217 -12 219 -24 0 -6 2 -15 3 -21 19 -121 14 -115 79
-120 39 -3 50 1 85 32 l40 34 -50 45 c-41 36 -56 44 -76 39 -16 -4 -22 -2 -18
5 3 6 -4 10 -17 10 -21 1 -21 2 -5 11 14 8 16 14 6 25 -7 8 -7 14 -1 14 5 0
10 11 10 24 0 38 25 81 50 84 27 4 72 -22 72 -41 0 -26 45 -57 83 -57 32 0 37
3 37 24 0 25 25 43 35 26 10 -17 -6 -34 -17 -19 -7 10 -8 8 -3 -7 4 -14 0 -24
-10 -28 -11 -4 -14 -13 -9 -33 11 -46 26 -56 68 -45 26 8 34 7 30 0 -5 -7 1
-9 15 -5 15 3 24 0 28 -10 5 -12 7 -12 14 -1 13 19 11 28 -6 28 -8 0 -15 5
-15 10 0 6 10 10 23 10 25 0 45 29 91 134 17 38 21 54 11 46 -10 -8 -28 -10
-53 -6 -20 4 -47 8 -60 10 -30 4 -41 16 -15 16 10 0 41 7 67 16 43 15 49 15
64 1 17 -15 23 -6 96 140 77 155 81 172 39 173 -6 0 -14 14 -18 30 -10 43 -42
71 -74 64 -54 -13 -67 -28 -67 -80 l1 -49 45 -1 c66 -2 72 -3 64 -15 -3 -6
-14 -9 -24 -6 -9 2 -25 0 -34 -5 -11 -6 -16 -5 -16 2 0 7 -6 10 -12 8 -7 -3
-14 -22 -15 -44 -2 -21 -5 -48 -7 -59 -2 -11 -5 -23 -5 -26 -1 -4 -27 -6 -58
-4 -68 3 -121 -18 -125 -49 -3 -19 -9 -21 -78 -19 -41 2 -89 6 -106 9 -23 4
-40 -1 -69 -20 -74 -50 -104 -25 -98 81 6 99 13 106 81 98 70 -8 92 5 94 56 1
46 -5 56 -42 64 -38 8 -48 25 -25 42 20 14 40 11 90 -13 28 -14 30 -13 52 15
22 28 87 52 133 49 38 -3 50 4 65 36 17 36 27 40 110 51 86 11 108 17 122 31
8 8 11 14 7 14 -5 0 -4 4 2 9 5 6 33 12 62 15 30 2 56 7 59 10 10 10 43 -14
43 -31 0 -15 2 -15 14 -3 17 17 208 410 200 410 -3 0 -14 -5 -25 -10 -13 -8
-34 -7 -72 3 -64 17 -90 9 -106 -32 -13 -29 -42 -48 -59 -37 -8 5 -52 15 -80
19 -15 2 -59 -74 -65 -111 -2 -12 -13 -29 -24 -37 -14 -10 -19 -22 -16 -35 7
-27 -6 -92 -17 -85 -4 3 -14 -1 -22 -7 -7 -7 -31 -12 -53 -12 -22 1 -46 -3
-53 -9 -9 -7 -11 -6 -6 7 5 12 2 15 -9 10 -18 -6 -18 16 0 37 20 25 25 59 13
94 -6 19 -15 35 -19 35 -4 0 -13 10 -19 23 -7 15 -11 17 -11 6 -1 -9 -10 -26
-21 -39 -20 -23 -22 -30 -24 -85 -1 -16 -5 -28 -10 -27 -9 4 -26 -16 -26 -30
0 -13 28 -9 33 5 4 9 7 9 17 0 16 -15 27 -138 12 -129 -6 3 -12 0 -15 -7 -9
-23 -74 -19 -97 5 -26 28 -25 36 5 80 27 40 31 63 14 74 -6 3 -9 15 -6 25 3
11 1 17 -4 13 -5 -3 -9 3 -9 12 0 10 -13 41 -29 69 -27 48 -28 54 -15 74 8 11
35 32 59 47 47 27 53 47 23 78 -11 11 -34 16 -70 16 -47 0 -58 4 -83 30 -22
23 -38 30 -66 30 -21 0 -41 -5 -45 -12z"/>
<path d="M2857 3641 c-16 -28 -23 -62 -26 -123 0 -16 -4 -27 -8 -26 -12 3 -82
-23 -88 -33 -13 -21 16 -49 51 -49 30 0 37 4 45 30 6 17 16 30 22 31 67 4 79
14 76 66 -2 47 -14 80 -41 116 -12 17 -14 16 -31 -12z"/>
<path d="M3046 3619 c-26 -31 -33 -50 -38 -103 -2 -24 -9 -31 -35 -38 -25 -7
-33 -14 -33 -32 0 -12 8 -30 18 -40 18 -15 20 -15 35 2 10 10 17 30 17 44 0
13 2 27 5 29 10 10 138 -9 146 -22 4 -7 11 -10 16 -6 4 5 2 12 -6 16 -8 6 -13
30 -12 75 0 65 -1 67 -32 86 -43 26 -51 25 -81 -11z"/>
<path d="M2312 3503 c-38 -5 -38 -9 9 -104 33 -66 61 -88 86 -67 12 10 14 26
10 78 -9 105 -8 105 -105 93z"/>
<path d="M2557 3479 c-11 -15 -13 -29 -7 -50 12 -42 19 -49 44 -49 42 0 50 79
11 104 -31 20 -31 20 -48 -5z"/>
<path d="M2670 3325 c-10 -36 -7 -74 6 -79 9 -3 14 1 13 12 -2 27 -16 78 -19
67z"/>
<path d="M2423 3194 c-41 -18 -53 -29 -53 -46 0 -13 -9 -29 -20 -36 -13 -8
-20 -9 -20 -1 0 27 -79 -26 -80 -54 0 -14 49 -57 65 -57 9 0 13 5 10 10 -3 6
0 11 7 11 7 1 20 2 28 3 8 0 14 8 12 17 -1 9 3 17 10 16 7 0 36 1 64 1 l50 2
13 50 c13 49 8 89 -13 102 -14 10 -12 10 -73 -18z"/>
<path d="M3945 3131 c-16 -10 -39 -28 -49 -40 -20 -22 -20 -22 7 -49 32 -31
36 -28 71 51 27 62 21 70 -29 38z"/>
<path d="M2744 3042 c-32 -5 -56 -37 -56 -74 0 -36 37 -127 52 -129 6 -1 16
-2 23 -3 23 -4 67 16 77 34 5 9 13 36 18 58 9 38 7 42 -22 70 -38 37 -65 49
-92 44z"/>
<path d="M1980 2898 c-20 -39 -21 -49 -10 -62 16 -20 37 -20 48 0 5 9 13 17
18 17 21 4 12 67 -11 67 -7 0 -15 6 -18 13 -2 6 -15 -9 -27 -35z"/>
<path d="M64631 2868 c-16 -35 -106 -220 -201 -413 -401 -815 -1170 -2387
-1170 -2392 0 -1 215 -3 478 -3 l477 0 80 158 80 157 767 3 768 2 80 -160 80
-160 480 0 479 0 -156 318 c-85 174 -258 526 -383 782 -126 256 -372 758 -547
1115 l-319 650 -482 3 -483 2 -28 -62z m538 -977 c11 -27 102 -215 201 -417
99 -202 180 -369 180 -370 0 -8 -820 -4 -820 4 0 12 405 832 411 832 4 0 16
-22 28 -49z"/>
<path d="M67220 1495 l0 -1435 440 0 440 0 0 1435 0 1435 -440 0 -440 0 0
-1435z"/>
<path d="M3538 2900 c-49 -41 -50 -42 -40 -52 15 -15 83 -28 121 -23 41 5 63
31 48 56 -6 10 -14 16 -18 13 -4 -2 -9 1 -11 8 -7 21 -74 19 -100 -2z"/>
<path d="M2570 2860 c0 -5 5 -10 11 -10 5 0 7 5 4 10 -3 6 -8 10 -11 10 -2 0
-4 -4 -4 -10z"/>
<path d="M2505 2749 c-72 -7 -101 -23 -109 -61 -4 -19 -12 -28 -25 -28 -10 0
-21 -8 -25 -17 -23 -66 -24 -72 -5 -102 18 -29 30 -36 54 -31 6 1 21 4 35 7
40 7 143 76 167 112 14 21 22 46 20 66 -3 46 -35 62 -112 54z"/>
<path d="M2055 2707 c-45 -28 -48 -35 -35 -84 6 -28 22 -56 38 -70 l27 -24 28
31 c15 17 27 37 27 46 0 8 9 24 20 36 24 26 13 43 -37 65 -38 15 -42 15 -68 0z"/>
<path d="M2060 2391 c-7 -15 -6 -23 6 -35 8 -9 18 -16 20 -16 8 0 34 27 34 35
0 10 -28 35 -39 35 -6 0 -15 -9 -21 -19z"/>
<path d="M2560 2389 c-8 -5 -35 -9 -59 -9 -64 0 -45 -10 28 -14 46 -3 61 -1
61 9 0 19 -13 25 -30 14z"/>
<path d="M1784 2325 c3 -8 1 -15 -5 -15 -15 0 -7 -43 11 -56 9 -8 22 -9 37 -3
13 5 35 11 49 13 31 6 44 16 21 16 -21 0 -56 19 -78 43 -20 21 -43 23 -35 2z"/>
<path d="M3560 2310 c0 -5 5 -10 11 -10 5 0 7 5 4 10 -3 6 -8 10 -11 10 -2 0
-4 -4 -4 -10z"/>
<path d="M2647 2295 c-9 -9 -17 -23 -17 -30 0 -20 29 -45 52 -45 26 0 78 31
78 46 0 34 -86 57 -113 29z"/>
<path d="M2170 2196 c-11 -21 -10 -27 3 -40 14 -15 17 -15 31 0 20 20 20 27
-2 47 -17 16 -19 16 -32 -7z"/>
<path d="M3633 2104 c-10 -26 14 -64 40 -64 32 0 44 15 39 50 -4 27 -8 30 -38
30 -22 0 -37 -6 -41 -16z"/>
<path d="M4211 2090 c27 -36 42 -42 63 -27 10 8 14 20 10 35 -5 19 -13 22 -50
22 l-45 0 22 -30z"/>
<path d="M2363 2100 c-43 -17 -27 -32 32 -32 47 0 49 1 30 22 -20 22 -29 23
-62 10z"/>
<path d="M2080 2080 c0 -5 5 -10 10 -10 6 0 10 5 10 10 0 6 -4 10 -10 10 -5 0
-10 -4 -10 -10z"/>
<path d="M2465 2050 c3 -4 -2 -43 -9 -86 -18 -104 -10 -120 59 -115 33 3 75
23 75 36 0 6 -8 21 -17 33 -10 12 -33 48 -51 80 -18 32 -40 59 -47 59 -8 0
-12 -3 -10 -7z"/>
<path d="M2736 1995 c-11 -8 -15 -15 -10 -15 6 0 18 -17 29 -37 10 -21 20 -32
22 -25 5 13 83 57 96 54 4 -1 7 5 7 13 0 8 -8 15 -19 15 -10 0 -38 2 -62 5
-31 4 -50 1 -63 -10z"/>
<path d="M2160 1991 c0 -5 6 -14 14 -20 10 -8 16 -8 25 2 6 8 8 17 4 20 -9 10
-43 8 -43 -2z"/>
<path d="M1875 1810 c-4 -6 -13 -9 -21 -6 -8 3 -14 1 -14 -4 0 -6 -3 -9 -7 -9
-5 1 -21 0 -38 -1 l-30 -2 35 -10 c19 -5 42 -10 50 -12 9 -1 21 -6 29 -10 13
-9 31 8 31 30 0 19 -27 37 -35 24z"/>
<path d="M2641 1791 c-6 -10 -7 -21 -4 -25 3 -3 1 -6 -6 -6 -7 0 -9 -4 -6 -10
3 -5 0 -7 -9 -4 -17 6 -51 -10 -83 -39 -19 -17 -22 -27 -16 -61 6 -39 27 -84
47 -97 5 -4 23 -2 40 3 17 6 65 13 106 17 l75 6 2 52 c2 54 -11 79 -22 43 -5
-16 -15 -20 -50 -20 -53 0 -88 26 -61 45 9 7 13 15 10 18 -6 6 37 32 49 29 15
-4 7 56 -9 62 -29 11 -53 6 -63 -13z"/>
<path d="M1582 1791 c-25 -15 10 -29 47 -19 18 5 32 10 30 12 -11 9 -67 14
-77 7z"/>
<path d="M1406 1730 c-15 -33 -26 -68 -24 -77 5 -27 24 -25 36 2 13 27 28 135
20 135 -3 0 -17 -27 -32 -60z"/>
<path d="M3065 1779 c-4 -5 -3 -13 0 -19 3 -5 1 -10 -6 -10 -8 0 -7 -6 4 -18
15 -17 13 -17 -35 -15 -37 3 -56 -1 -70 -13 -19 -18 -25 -40 -8 -29 6 3 10 -5
10 -19 0 -18 5 -23 18 -21 9 2 35 4 56 4 37 1 39 2 20 16 -18 14 -18 14 4 10
19 -3 21 -1 13 9 -13 16 -4 27 15 19 8 -3 11 -10 7 -16 -3 -6 -1 -7 5 -3 9 5
8 12 -1 27 -10 16 -9 21 3 29 13 8 12 10 -4 10 -17 0 -17 2 -3 23 14 21 13 23
-4 24 -10 1 -21 -2 -24 -8z"/>
<path d="M3499 1738 c-1 -2 -2 -20 -4 -41 -5 -52 -18 -64 -78 -72 -29 -4 -60
-11 -69 -17 -23 -11 -25 -68 -2 -68 25 0 42 -25 49 -71 3 -24 8 -53 10 -65 5
-32 -5 -41 -65 -57 -30 -8 -59 -16 -65 -17 -5 -2 -31 7 -58 19 -54 25 -79 22
-95 -15 -16 -35 -15 -43 13 -102 24 -51 25 -52 7 -89 -35 -76 -81 -93 -109
-40 -23 44 -25 52 -27 133 -1 44 -7 78 -15 88 -13 15 -16 15 -36 -4 -19 -18
-21 -25 -12 -68 13 -60 4 -97 -32 -133 -35 -35 -26 -45 44 -48 77 -3 85 -8 85
-47 0 -40 19 -64 50 -64 29 0 60 18 60 35 0 7 14 19 30 27 17 7 30 16 30 20 0
5 6 8 13 8 6 0 27 9 45 20 l34 21 -45 34 c-43 33 -58 57 -50 83 3 6 9 12 15
12 5 0 16 7 24 15 12 12 30 14 83 9 l67 -7 35 40 34 40 55 -11 c30 -6 66 -19
80 -28 14 -10 37 -19 50 -20 22 -3 25 2 33 50 5 29 13 50 18 47 5 -4 6 0 3 8
-3 10 4 17 23 22 25 6 26 8 10 17 -10 5 -29 7 -43 4 -16 -4 -37 2 -64 19 -22
14 -43 25 -46 25 -4 0 -15 10 -25 22 -33 37 -20 117 14 90 17 -13 112 -21 131
-10 11 6 16 23 16 51 0 44 -13 67 -38 67 -15 0 -44 25 -36 32 2 3 -8 10 -23
16 -44 16 -92 22 -98 12 -3 -6 -11 -10 -16 -10 -6 0 -7 5 -4 10 3 6 4 10 1 10
-3 0 -6 -1 -7 -2z"/>
<path d="M2371 1704 c-6 -14 -11 -36 -11 -50 0 -13 -5 -33 -12 -43 -14 -22 7
-85 25 -74 6 4 8 0 5 -9 -5 -11 0 -15 14 -14 21 1 26 12 33 66 2 14 4 25 6 25
8 0 5 83 -4 93 -24 30 -44 32 -56 6z m34 -174 c3 -5 1 -10 -4 -10 -6 0 -11 5
-11 10 0 6 2 10 4 10 3 0 8 -4 11 -10z"/>
<path d="M2072 1608 c-15 -15 -15 -33 0 -75 7 -20 17 -32 25 -29 7 3 17 -3 23
-14 6 -11 17 -17 24 -14 8 3 20 -1 27 -9 11 -12 17 -11 37 9 22 20 23 52 1 39
-5 -3 -6 1 -3 10 4 10 2 14 -8 10 -15 -6 -55 31 -45 41 8 8 -37 44 -55 44 -8
0 -19 -5 -26 -12z"/>
<path d="M2935 1537 c-39 -36 -44 -46 -38 -67 5 -14 16 -26 28 -27 11 -1 40
-5 65 -8 97 -12 130 -4 130 29 0 17 2 18 10 6 8 -12 10 -12 10 5 0 11 -16 37
-36 59 -29 32 -43 39 -80 42 -39 2 -48 -2 -89 -39z"/>
<path d="M3224 1508 c-16 -17 -23 -28 -16 -24 6 4 12 3 12 -2 0 -5 12 -14 27
-21 22 -10 28 -10 35 4 5 8 13 13 19 10 5 -4 9 -1 9 5 0 6 5 8 10 5 6 -3 10 4
10 18 0 19 -7 26 -31 31 -44 9 -42 9 -75 -26z"/>
<path d="M1786 1521 c-3 -5 -26 -12 -51 -15 -63 -10 -56 -25 10 -23 50 2 55 4
55 25 0 23 -5 28 -14 13z"/>
<path d="M2466 1485 c-4 -10 -16 -16 -33 -14 -67 5 -78 0 -95 -41 -17 -39 -17
-40 6 -65 29 -31 55 -32 91 -3 23 18 26 27 22 59 -3 26 0 42 11 53 9 8 13 18
10 21 -3 3 -8 -1 -12 -10z"/>
<path d="M1853 1424 c-7 -19 5 -43 30 -58 13 -8 21 -6 34 6 14 14 15 22 5 43
-13 29 -59 35 -69 9z"/>
<path d="M2761 1407 c-6 -8 -8 -17 -4 -20 10 -11 63 -8 63 3 0 6 -6 10 -12 10
-9 0 -8 4 2 10 12 8 9 10 -11 10 -15 0 -32 -6 -38 -13z"/>
<path d="M1590 1389 c0 -5 5 -7 10 -4 6 3 10 8 10 11 0 2 -4 4 -10 4 -5 0 -10
-5 -10 -11z"/>
<path d="M1370 1248 c-26 -43 -25 -67 4 -106 22 -30 24 -31 38 -14 26 29 45
75 43 104 -2 33 -2 33 -38 42 -23 5 -30 2 -47 -26z"/>
<path d="M3565 1260 c-3 -5 1 -13 10 -16 22 -9 29 1 11 15 -10 8 -16 9 -21 1z"/>
<path d="M1960 1225 l-31 -32 34 -22 c45 -27 141 -32 165 -7 22 22 6 47 -39
62 -104 34 -95 34 -129 -1z"/>
<path d="M3552 1210 c-11 -18 -10 -20 13 -20 23 0 24 2 15 20 -6 11 -12 20
-13 20 -1 0 -8 -9 -15 -20z"/>
<path d="M1786 1204 c-7 -18 17 -29 39 -17 14 8 12 11 -9 21 -20 9 -25 8 -30
-4z"/>
<path d="M2551 1206 c-16 -19 19 -35 49 -24 24 9 24 10 5 21 -28 16 -43 17
-54 3z"/>
<path d="M1185 1120 c-10 -11 -28 -20 -39 -21 -15 0 -10 -5 18 -18 31 -13 45
-15 63 -7 29 14 29 17 0 44 l-24 22 -18 -20z"/>
<path d="M2661 1126 c-11 -13 -14 -113 -4 -149 5 -20 45 -46 41 -26 -2 6 3 14
11 17 9 3 11 0 6 -8 -6 -9 -4 -11 4 -6 7 5 10 10 7 13 -3 3 2 12 10 20 8 9 13
22 10 29 -3 7 5 20 17 29 12 8 17 15 12 15 -6 0 -2 7 8 15 11 7 25 11 32 9 7
-3 16 -1 20 5 3 7 -3 11 -17 12 -37 1 -63 7 -94 24 -36 19 -48 19 -63 1z"/>
<path d="M2160 1111 c-7 -15 -5 -25 9 -42 l18 -23 12 22 c8 16 9 28 1 42 -13
25 -26 25 -40 1z"/>
<path d="M1677 1104 c-9 -10 2 -24 19 -24 8 0 14 7 14 15 0 15 -21 21 -33 9z"/>
<path d="M1387 1029 c-21 -29 -21 -36 -3 -55 16 -15 51 -20 42 -5 -4 5 -2 11
3 13 5 1 1 18 -8 37 l-18 34 -16 -24z"/>
<path d="M2476 1013 c-3 -4 -6 -24 -6 -45 0 -26 4 -38 14 -38 13 0 26 29 26
61 0 17 -24 32 -34 22z"/>
<path d="M2850 951 c0 -5 -9 -13 -20 -16 -23 -7 -27 -45 -5 -45 8 0 23 -4 33
-9 9 -5 30 -13 47 -18 26 -7 31 -14 37 -58 5 -37 3 -54 -8 -66 -29 -32 -17
-39 66 -39 88 0 86 -1 88 75 1 27 -5 32 -43 48 -39 17 -63 46 -57 69 1 4 -8
13 -21 19 -12 7 -22 12 -22 11 0 -1 -10 1 -22 4 -13 4 -23 11 -23 17 0 6 -3 7
-6 4 -4 -3 -15 -2 -25 4 -12 6 -19 6 -19 0z"/>
<path d="M1627 924 c-3 -4 -33 -7 -124 -13 -7 -1 -13 -6 -13 -12 0 -5 4 -8 8
-5 5 3 25 -3 45 -14 48 -26 157 -26 199 0 30 18 27 26 -14 37 -30 8 -96 12
-101 7z"/>
<path d="M3298 912 c-10 -2 -18 -8 -18 -13 0 -5 -7 -9 -15 -9 -8 0 -15 5 -15
11 0 5 -5 7 -11 3 -6 -3 -8 -17 -5 -30 4 -14 2 -24 -4 -24 -18 0 -11 -39 11
-61 15 -15 28 -19 50 -14 19 4 29 3 29 -5 0 -10 3 -10 14 -1 10 8 16 9 21 1 3
-6 10 -8 15 -5 5 3 6 -10 3 -30 l-6 -35 62 0 c42 0 61 4 61 13 0 26 -21 87
-30 87 -6 0 -10 11 -10 25 0 16 -6 25 -15 25 -9 0 -15 -9 -15 -23 0 -12 -9
-28 -20 -35 l-21 -13 21 41 c11 22 17 40 13 40 -4 0 -2 5 5 12 7 7 12 19 12
28 0 12 -12 16 -57 16 -32 0 -66 -1 -75 -4z"/>
<path d="M62240 465 l0 -405 400 0 400 0 0 405 0 405 -400 0 -400 0 0 -405z"/>
<path d="M2732 707 c-12 -13 -20 -26 -17 -29 3 -3 -13 -8 -37 -12 -26 -4 -47
-15 -57 -29 -19 -26 -23 -69 -7 -64 6 2 22 0 36 -5 38 -14 90 -1 90 23 0 11
11 30 23 42 13 12 29 32 36 45 7 12 21 22 34 22 21 1 22 1 3 15 -30 23 -79 19
-104 -8z"/>
<path d="M1686 698 c-3 -13 -7 -40 -9 -61 -2 -30 0 -37 12 -35 12 2 16 17 17
56 2 54 -12 80 -20 40z"/>
<path d="M2595 640 c-3 -5 -2 -10 4 -10 5 0 13 5 16 10 3 6 2 10 -4 10 -5 0
-13 -4 -16 -10z"/>
<path d="M2336 429 c-14 -11 -24 -25 -20 -30 8 -13 -16 -40 -28 -33 -13 8 -48
-35 -48 -59 0 -28 28 -57 48 -49 24 8 41 33 42 58 0 20 50 54 79 54 6 0 25 6
43 14 18 8 42 18 53 21 15 6 4 12 -45 26 -82 24 -91 24 -124 -2z"/>
<path d="M2029 264 c-26 -12 -49 -29 -52 -37 -8 -21 20 -42 75 -56 43 -10 145
-5 133 7 -3 3 2 13 10 22 15 16 12 20 -37 47 -75 42 -78 42 -129 17z"/>
<path d="M2362 165 c0 -50 1 -55 24 -61 26 -7 58 12 48 28 -3 5 0 15 6 23 10
12 10 15 -1 15 -10 1 -8 5 4 15 18 13 18 14 -2 24 -11 6 -33 11 -49 11 -28 0
-29 -1 -30 -55z"/>
<path d="M1103 100 c0 -25 2 -35 4 -22 2 12 2 32 0 45 -2 12 -4 2 -4 -23z"/>
</g>
</svg>
